# xmcd
#
# Track frame offsets:
#	150
#	24836
#	40491
#	58620
#	74898
#
# Disc length: 1267 seconds
#
# Revision: 1
# Processed by: cddbd v1.5PL3 Copyright (c) Steve Scherf et al.
# Submitted via: audiograbber 1.82.02
#
DISCID=4404f105
DTITLE=Ben Rice and the Youth of Blues - Ben Rice and the Youth of Blues
DYEAR=2004
DGENRE=Blues
TTITLE0=Mean Lady
TTITLE1=Livin' the Life
TTITLE2=Infactuation
TTITLE3=Last Year
TTITLE4=I Saw the Devil
EXTD=Small new band from Newberg Oregon.
EXTT0=
EXTT1=
EXTT2=
EXTT3=
EXTT4=
PLAYORDER=
